<svg xmlns="http://www.w3.org/2000/svg" xmlns:xlink="http://www.w3.org/1999/xlink" width="500" zoomAndPan="magnify" viewBox="0 0 375 374.999991" height="500" preserveAspectRatio="xMidYMid meet" version="1.0"><defs><g/><clipPath id="id1"><path d="M 243 4.273438 L 302.710938 4.273438 L 302.710938 254.773438 L 243 254.773438 Z M 243 4.273438 " clip-rule="nonzero"/></clipPath><clipPath id="id2"><path d="M 165 99 L 225 99 L 225 254.773438 L 165 254.773438 Z M 165 99 " clip-rule="nonzero"/></clipPath><clipPath id="id3"><path d="M 87.460938 194 L 147 194 L 147 254.773438 L 87.460938 254.773438 Z M 87.460938 194 " clip-rule="nonzero"/></clipPath></defs><g clip-path="url(#id1)"><path fill="#5271ff" d="M 243.15625 34.613281 L 243.15625 221.601562 C 243.15625 242.523438 257.59375 254.183594 272.882812 254.183594 C 287.035156 254.183594 302.605469 244.265625 302.605469 221.601562 L 302.605469 36.027344 C 302.605469 16.847656 288.449219 4.863281 272.882812 4.863281 C 257.3125 4.863281 243.15625 18.082031 243.15625 34.613281 Z M 243.15625 34.613281 " fill-opacity="1" fill-rule="nonzero"/></g><g clip-path="url(#id2)"><path fill="#38b6ff" d="M 165.308594 129.523438 L 165.308594 221.601562 C 165.308594 242.523438 179.746094 254.183594 195.03125 254.183594 C 209.1875 254.183594 224.757812 244.265625 224.757812 221.601562 L 224.757812 130.941406 C 224.757812 111.757812 210.601562 99.773438 195.03125 99.773438 C 179.460938 99.773438 165.308594 112.992188 165.308594 129.523438 Z M 165.308594 129.523438 " fill-opacity="1" fill-rule="nonzero"/></g><g clip-path="url(#id3)"><path fill="#38b6ff" d="M 146.90625 224.433594 C 146.90625 225.410156 146.859375 226.378906 146.765625 227.351562 C 146.667969 228.320312 146.527344 229.28125 146.335938 230.238281 C 146.144531 231.191406 145.910156 232.136719 145.628906 233.070312 C 145.34375 234 145.015625 234.917969 144.644531 235.816406 C 144.273438 236.71875 143.855469 237.597656 143.398438 238.457031 C 142.9375 239.316406 142.4375 240.152344 141.898438 240.960938 C 141.355469 241.769531 140.777344 242.554688 140.160156 243.304688 C 139.542969 244.058594 138.890625 244.78125 138.203125 245.46875 C 137.511719 246.15625 136.792969 246.8125 136.039062 247.429688 C 135.289062 248.046875 134.507812 248.628906 133.695312 249.167969 C 132.886719 249.710938 132.054688 250.210938 131.195312 250.667969 C 130.335938 251.128906 129.457031 251.542969 128.558594 251.917969 C 127.660156 252.289062 126.742188 252.617188 125.8125 252.902344 C 124.878906 253.183594 123.9375 253.421875 122.980469 253.609375 C 122.027344 253.800781 121.066406 253.941406 120.097656 254.039062 C 119.128906 254.132812 118.15625 254.183594 117.183594 254.183594 C 116.210938 254.183594 115.238281 254.132812 114.269531 254.039062 C 113.300781 253.941406 112.339844 253.800781 111.382812 253.609375 C 110.429688 253.421875 109.488281 253.183594 108.554688 252.902344 C 107.625 252.617188 106.707031 252.289062 105.808594 251.917969 C 104.910156 251.542969 104.03125 251.128906 103.171875 250.667969 C 102.3125 250.210938 101.480469 249.710938 100.667969 249.167969 C 99.859375 248.628906 99.078125 248.046875 98.328125 247.429688 C 97.574219 246.8125 96.855469 246.15625 96.164062 245.46875 C 95.476562 244.78125 94.824219 244.058594 94.207031 243.304688 C 93.589844 242.554688 93.007812 241.769531 92.46875 240.960938 C 91.929688 240.152344 91.429688 239.316406 90.96875 238.457031 C 90.511719 237.597656 90.09375 236.71875 89.722656 235.816406 C 89.347656 234.917969 89.023438 234 88.738281 233.070312 C 88.457031 232.136719 88.21875 231.191406 88.03125 230.238281 C 87.839844 229.28125 87.699219 228.320312 87.601562 227.351562 C 87.507812 226.378906 87.460938 225.410156 87.460938 224.433594 C 87.460938 223.460938 87.507812 222.488281 87.601562 221.519531 C 87.699219 220.546875 87.839844 219.585938 88.03125 218.628906 C 88.21875 217.675781 88.457031 216.730469 88.738281 215.796875 C 89.023438 214.867188 89.347656 213.949219 89.722656 213.050781 C 90.09375 212.148438 90.511719 211.269531 90.96875 210.410156 C 91.429688 209.550781 91.929688 208.714844 92.46875 207.90625 C 93.007812 207.097656 93.589844 206.316406 94.207031 205.5625 C 94.824219 204.808594 95.476562 204.085938 96.164062 203.398438 C 96.855469 202.710938 97.574219 202.054688 98.328125 201.4375 C 99.078125 200.820312 99.859375 200.242188 100.667969 199.699219 C 101.480469 199.15625 102.3125 198.65625 103.171875 198.199219 C 104.03125 197.738281 104.910156 197.324219 105.808594 196.949219 C 106.707031 196.578125 107.625 196.25 108.554688 195.964844 C 109.488281 195.683594 110.429688 195.449219 111.382812 195.257812 C 112.339844 195.066406 113.300781 194.925781 114.269531 194.828125 C 115.238281 194.734375 116.210938 194.6875 117.183594 194.6875 C 118.15625 194.6875 119.128906 194.734375 120.097656 194.828125 C 121.066406 194.925781 122.027344 195.066406 122.980469 195.257812 C 123.9375 195.449219 124.878906 195.683594 125.8125 195.964844 C 126.742188 196.25 127.660156 196.578125 128.558594 196.949219 C 129.457031 197.324219 130.335938 197.738281 131.195312 198.199219 C 132.054688 198.65625 132.886719 199.15625 133.695312 199.699219 C 134.507812 200.242188 135.289062 200.820312 136.039062 201.4375 C 136.792969 202.054688 137.511719 202.710938 138.203125 203.398438 C 138.890625 204.085938 139.542969 204.808594 140.160156 205.5625 C 140.777344 206.316406 141.355469 207.097656 141.898438 207.90625 C 142.4375 208.714844 142.9375 209.550781 143.398438 210.410156 C 143.855469 211.269531 144.273438 212.148438 144.644531 213.050781 C 145.015625 213.949219 145.34375 214.867188 145.628906 215.796875 C 145.910156 216.730469 146.144531 217.675781 146.335938 218.628906 C 146.527344 219.585938 146.667969 220.546875 146.765625 221.519531 C 146.859375 222.488281 146.90625 223.460938 146.90625 224.433594 Z M 146.90625 224.433594 " fill-opacity="1" fill-rule="nonzero"/></g><g fill="#000000" fill-opacity="1"><g transform="translate(22.475258, 357.536105)"><g><path d="M 58.4375 -54.566406 L 53.851562 -54.566406 L 33.132812 -2.609375 L 12.574219 -54.566406 L 7.671875 -54.566406 L 7.671875 0 L 10.675781 0 L 10.675781 -30.761719 C 10.675781 -37.640625 10.675781 -45.3125 10.515625 -51.953125 C 12.96875 -45.390625 16.054688 -37.5625 18.742188 -30.839844 L 31.15625 0 L 34.953125 0 L 47.367188 -30.761719 C 50.136719 -37.5625 53.140625 -45.390625 55.59375 -52.035156 C 55.433594 -45.390625 55.511719 -37.640625 55.511719 -30.761719 L 55.511719 0 L 58.4375 0 Z M 58.4375 -54.566406 "/></g></g></g><g fill="#000000" fill-opacity="1"><g transform="translate(86.678425, 357.536105)"><g><path d="M 38.828125 -21.984375 C 38.828125 -32.816406 33.054688 -42.78125 21.273438 -42.78125 C 10.675781 -42.78125 2.371094 -34.160156 2.371094 -20.957031 C 2.371094 -6.328125 10.597656 1.105469 20.558594 1.105469 C 28.625 1.105469 35.902344 -3.558594 38.195312 -12.96875 L 35.109375 -12.96875 C 33.054688 -5.0625 27.046875 -1.421875 20.71875 -1.421875 C 13.445312 -1.421875 6.011719 -6.484375 5.535156 -20.007812 L 38.75 -20.007812 C 38.828125 -21.035156 38.828125 -21.589844 38.828125 -21.984375 Z M 21.113281 -40.25 C 28.152344 -40.25 35.269531 -35.507812 35.742188 -22.617188 L 5.535156 -22.617188 C 6.011719 -34.558594 13.839844 -40.25 21.113281 -40.25 Z M 21.113281 -40.25 "/></g></g></g><g fill="#000000" fill-opacity="1"><g transform="translate(128.426297, 357.536105)"><g><path d="M 10.28125 -6.484375 C 10.203125 -7.589844 10.203125 -8.621094 10.203125 -10.675781 L 10.203125 -38.984375 L 18.265625 -38.984375 L 18.265625 -41.359375 L 10.203125 -41.359375 L 10.203125 -50.214844 L 7.195312 -50.214844 L 7.195312 -41.359375 L 2.054688 -41.359375 L 2.054688 -38.984375 L 7.195312 -38.984375 L 7.195312 -10.832031 C 7.195312 -8.460938 7.195312 -7.039062 7.355469 -5.296875 C 7.671875 -1.265625 9.804688 0.554688 13.917969 0.554688 C 15.421875 0.554688 17.082031 0.472656 18.347656 0.316406 L 18.347656 -2.054688 C 12.414062 -1.1875 10.597656 -2.371094 10.28125 -6.484375 Z M 10.28125 -6.484375 "/></g></g></g><g fill="#000000" fill-opacity="1"><g transform="translate(148.588616, 357.536105)"><g><path d="M 19.375 -42.78125 C 15.972656 -42.78125 12.96875 -41.121094 10.914062 -38.273438 L 8.699219 -33.214844 L 8.699219 -41.675781 L 5.695312 -41.675781 L 5.695312 0 L 8.699219 0 L 8.699219 -23.089844 C 8.699219 -35.742188 13.996094 -40.648438 21.507812 -40.09375 L 21.507812 -42.542969 C 20.875 -42.703125 20.164062 -42.78125 19.375 -42.78125 Z M 19.375 -42.78125 "/></g></g></g><g fill="#000000" fill-opacity="1"><g transform="translate(170.332302, 357.536105)"><g><path d="M 7.195312 -52.667969 C 5.929688 -52.667969 4.902344 -51.636719 4.902344 -50.375 C 4.902344 -49.109375 5.929688 -48.078125 7.195312 -48.078125 C 8.460938 -48.078125 9.488281 -49.109375 9.488281 -50.375 C 9.488281 -51.636719 8.460938 -52.667969 7.195312 -52.667969 Z M 8.699219 0 L 8.699219 -41.675781 L 5.695312 -41.675781 L 5.695312 0 Z M 8.699219 0 "/></g></g></g><g fill="#000000" fill-opacity="1"><g transform="translate(184.80174, 357.536105)"><g><path d="M 21.589844 -42.78125 C 11.148438 -42.78125 2.371094 -34.476562 2.371094 -20.796875 C 2.371094 -6.644531 10.597656 1.105469 20.875 1.105469 C 29.574219 1.105469 36.375 -3.953125 38.117188 -12.652344 L 35.03125 -12.652344 C 33.53125 -5.378906 27.835938 -1.421875 21.113281 -1.421875 C 13.207031 -1.421875 5.695312 -7.671875 5.695312 -21.273438 C 5.695312 -34.160156 13.917969 -40.332031 21.429688 -40.332031 C 29.179688 -40.332031 34.003906 -35.824219 35.425781 -28.46875 L 38.511719 -28.46875 C 37.246094 -37.007812 30.839844 -42.78125 21.589844 -42.78125 Z M 21.589844 -42.78125 "/></g></g></g><g fill="#5271ff" fill-opacity="1"><g transform="translate(229.713281, 359.584067)"><g><path d="M 79.714844 -54.566406 L 66.984375 -54.566406 L 58.046875 -9.253906 L 49.820312 -53.777344 L 32.1875 -53.777344 L 23.726562 -9.648438 L 15.34375 -54.566406 L 2.054688 -54.566406 L 15.5 0 L 32.027344 0 L 40.804688 -44.207031 L 49.03125 0 L 65.480469 0 Z M 79.714844 -54.566406 "/></g></g></g><g fill="#5271ff" fill-opacity="1"><g transform="translate(308.783386, 359.584067)"><g><path d="M 34.558594 -54.171875 C 31.792969 -54.488281 29.65625 -54.566406 26.414062 -54.566406 L 6.722656 -54.566406 L 6.722656 0 L 19.136719 0 L 19.136719 -19.929688 L 26.414062 -19.929688 C 29.65625 -19.929688 31.792969 -20.007812 34.558594 -20.324219 C 42.46875 -21.273438 49.425781 -26.886719 49.425781 -37.246094 C 49.425781 -47.609375 42.703125 -53.222656 34.558594 -54.171875 Z M 30.289062 -29.8125 C 29.179688 -29.65625 27.679688 -29.65625 25.9375 -29.65625 L 19.136719 -29.65625 L 19.136719 -44.839844 L 25.9375 -44.839844 C 27.679688 -44.839844 29.179688 -44.839844 30.289062 -44.679688 C 34.003906 -44.207031 36.457031 -41.914062 36.457031 -37.246094 C 36.457031 -32.582031 34.003906 -30.289062 30.289062 -29.8125 Z M 30.289062 -29.8125 "/></g></g></g><g fill="#000000" fill-opacity="1"><g transform="translate(52.978213, 253.388641)"><g><path d="M 99.734375 0 L 62.21875 -132.09375 L 61.09375 -132.09375 C 62.851562 -109.601562 63.734375 -92.125 63.734375 -79.65625 L 63.734375 0 L 19.828125 0 L 19.828125 -183.40625 L 85.8125 -183.40625 L 124.0625 -53.1875 L 125.078125 -53.1875 L 162.578125 -183.40625 L 228.703125 -183.40625 L 228.703125 0 L 183.15625 0 L 183.15625 -80.40625 C 183.15625 -84.59375 183.21875 -89.234375 183.34375 -94.328125 C 183.46875 -99.429688 184.03125 -111.9375 185.03125 -131.84375 L 183.90625 -131.84375 L 146.90625 0 Z M 99.734375 0 "/></g></g></g></svg>